<?xml version="1.0" standalone="no"?>
<!DOCTYPE svg PUBLIC "-//W3C//DTD SVG 20010904//EN"
 "http://www.w3.org/TR/2001/REC-SVG-20010904/DTD/svg10.dtd">
<svg version="1.0" xmlns="http://www.w3.org/2000/svg"
 width="536.000000pt" height="536.000000pt" viewBox="0 0 536.000000 536.000000"
 preserveAspectRatio="xMidYMid meet">
<metadata>
Created by potrace 1.11, written by Peter Selinger 2001-2013
</metadata>
<g transform="translate(0.000000,536.000000) scale(0.100000,-0.100000)"
fill="#000000" stroke="none">
<path d="M2260 4420 l-420 -840 414 0 c288 0 417 3 422 11 4 8 9 8 17 0 13
-13 840 -16 835 -2 -11 29 -840 1671 -844 1671 -2 0 -193 -378 -424 -840z"/>
<path d="M1775 4370 l-790 -790 398 0 397 0 395 790 c217 435 394 790 392 790
-1 0 -358 -355 -792 -790z"/>
<path d="M3197 4370 l398 -790 395 0 395 0 -790 790 c-434 435 -791 790 -793
790 -2 0 176 -355 395 -790z"/>
<path d="M1245 3280 c137 -137 252 -250 255 -250 5 0 250 485 250 495 0 3
-170 5 -377 5 l-378 0 250 -250z"/>
<path d="M1678 3257 l-136 -274 131 -131 132 -132 405 405 405 405 -400 0
-400 0 -137 -273z"/>
<path d="M3162 3123 l408 -408 132 133 133 132 -138 275 -137 275 -402 0 -403
0 407 -407z"/>
<path d="M3746 3278 l126 -251 249 249 c137 137 249 250 249 251 0 2 -169 3
-375 3 l-375 0 126 -252z"/>
<path d="M2113 2948 l-571 -573 136 -272 137 -273 872 0 873 0 137 275 138
275 -570 570 c-313 314 -572 570 -575 570 -3 0 -262 -258 -577 -572z"/>
<path d="M3747 2085 l-127 -255 382 0 383 0 -255 255 c-140 140 -255 255 -255
255 0 0 -58 -115 -128 -255z"/>
<path d="M1245 2080 l-250 -250 378 0 c207 0 377 2 377 5 0 10 -245 495 -250
495 -3 0 -118 -112 -255 -250z"/>
<path d="M1775 990 c434 -434 791 -790 792 -790 2 0 -175 356 -392 790 l-395
790 -397 0 -398 0 790 -790z"/>
<path d="M2260 940 c231 -462 422 -840 424 -840 4 0 833 1642 844 1671 2 5
-372 9 -842 9 l-846 0 420 -840z"/>
<path d="M3190 978 l-402 -803 801 800 c441 440 801 801 801 802 0 2 -180 3
-400 3 l-399 0 -401 -802z"/>
</g>
</svg>
