<svg xmlns="http://www.w3.org/2000/svg" viewBox="0 0 359.6 535.5"><title>logo</title><g id="Layer_3" data-name="Layer 3"><polygon points="356 355.7 179.8 532 179.7 531.9 268.5 355.3 355.6 355.3 356 355.7" style="fill:#7a5fff"/><polygon points="356 179.8 297.6 238.2 179.7 3.6 179.8 3.5 356 179.8" style="fill:#d17c72"/><polygon points="355.6 355.3 268.5 355.3 297.6 297.3 355.6 355.3" style="fill:#7a5fff"/><polygon points="268.1 267.8 297.6 297.3 268.5 355.3 91 355.3 62 297.3 91.5 267.8 179.8 179.5 268.1 267.8" style="fill:#4329bf"/><polygon points="179.7 3.6 297.6 238.2 268.1 267.8 179.8 179.5 91.5 267.8 62 238.3 179 4.3 179.7 3.6" style="fill:#b22415"/><polygon points="268.5 355.3 179.7 531.9 179 531.2 91 355.3 268.5 355.3" style="fill:#4329bf"/><polygon points="179 4.3 62 238.3 3.5 179.8 179 4.3" style="fill:#d17c72"/><polygon points="91 355.3 179 531.2 3.5 355.7 4 355.3 91 355.3" style="fill:#7a5fff"/><polygon points="62 297.3 91 355.3 4 355.3 62 297.3" style="fill:#7a5fff"/><polyline points="91.5 267.8 62 238.3 3.5 179.8 179 4.3 179.7 3.6 179.8 3.5 356 179.8 297.6 238.2 268.1 267.8" style="fill:none;stroke:#fff;stroke-miterlimit:10;stroke-width:5px"/><polygon points="355.6 355.3 356 355.7 179.8 532 179.7 531.9 179 531.2 3.5 355.7 4 355.3 62 297.3 91.5 267.8 179.8 179.5 268.1 267.8 297.6 297.3 355.6 355.3" style="fill:none;stroke:#fff;stroke-miterlimit:10;stroke-width:5px"/><polyline points="179.5 3.3 179 4.3 62 238.3" style="fill:none;stroke:#fff;stroke-miterlimit:10;stroke-width:5px"/><polyline points="356.5 355.3 355.6 355.3 268.5 355.3 91 355.3 4 355.3 3.5 355.3" style="fill:none;stroke:#fff;stroke-miterlimit:10;stroke-width:5px"/><polyline points="179.5 3.3 179.7 3.6 297.6 238.2 297.7 238.3" style="fill:none;stroke:#fff;stroke-miterlimit:10;stroke-width:5px"/><polyline points="62 297.3 91 355.3 179 531.2 179.5 532.3" style="fill:none;stroke:#fff;stroke-miterlimit:10;stroke-width:5px"/><polyline points="179.5 532.3 179.7 531.9 268.5 355.3 297.6 297.3 297.7 297.3" style="fill:none;stroke:#fff;stroke-miterlimit:10;stroke-width:5px"/><line x1="3.5" y1="180.3" x2="356.5" y2="180.3" style="fill:none;stroke:#fff;stroke-miterlimit:10;stroke-width:5px"/></g></svg>